<?xml version="1.0" encoding="UTF-8" standalone="no"?>
<!-- Created with Inkscape (http://www.inkscape.org/) -->

<svg
   width="260.61459mm"
   height="76.283325mm"
   viewBox="0 0 260.61459 76.283325"
   version="1.1"
   id="svg5"
   xmlns:xlink="http://www.w3.org/1999/xlink"
   xmlns="http://www.w3.org/2000/svg"
   xmlns:svg="http://www.w3.org/2000/svg">
  <defs
     id="defs2">
    <linearGradient
       x1="0.5"
       y1="0"
       x2="0.5"
       y2="1"
       id="ccchaos-grad">
      <stop
         stop-color="hsl(192, 100%, 50%)"
         stop-opacity="1"
         offset="0%"
         id="stop824" />
      <stop
         stop-color="hsl(244, 98%, 25%)"
         stop-opacity="1"
         offset="100%"
         id="stop826" />
    </linearGradient>
    <radialGradient
       id="cccircular-grad"
       r="0.5"
       cx="0.5"
       cy="0.5">
      <stop
         offset="15%"
         stop-color="#82a6cc"
         stop-opacity="0.5"
         id="stop6710" />
      <stop
         offset="75%"
         stop-color="hsl(211, 100%, 85%)"
         stop-opacity="1"
         id="stop6712" />
      <stop
         offset="100%"
         stop-color="#ffffff"
         stop-opacity="1"
         id="stop6714" />
    </radialGradient>
    <radialGradient
       xlink:href="#cccircular-grad"
       id="radialGradient6760"
       cx="400"
       cy="400"
       r="352"
       fx="400"
       fy="400"
       gradientUnits="userSpaceOnUse" />
    <radialGradient
       xlink:href="#cccircular-grad"
       id="radialGradient6762"
       cx="400"
       cy="400"
       r="320"
       fx="400"
       fy="400"
       gradientUnits="userSpaceOnUse" />
    <radialGradient
       xlink:href="#cccircular-grad"
       id="radialGradient6764"
       cx="400"
       cy="400"
       r="288"
       fx="400"
       fy="400"
       gradientUnits="userSpaceOnUse" />
    <radialGradient
       xlink:href="#cccircular-grad"
       id="radialGradient6766"
       cx="400"
       cy="400"
       r="256"
       fx="400"
       fy="400"
       gradientUnits="userSpaceOnUse" />
    <radialGradient
       xlink:href="#cccircular-grad"
       id="radialGradient6768"
       cx="400"
       cy="400"
       r="224"
       fx="400"
       fy="400"
       gradientUnits="userSpaceOnUse" />
    <radialGradient
       xlink:href="#cccircular-grad"
       id="radialGradient6770"
       cx="400"
       cy="400"
       r="192"
       fx="400"
       fy="400"
       gradientUnits="userSpaceOnUse" />
    <radialGradient
       xlink:href="#cccircular-grad"
       id="radialGradient6772"
       cx="400"
       cy="400"
       r="160"
       fx="400"
       fy="400"
       gradientUnits="userSpaceOnUse" />
    <radialGradient
       xlink:href="#cccircular-grad"
       id="radialGradient6774"
       cx="400"
       cy="400"
       r="128"
       fx="400"
       fy="400"
       gradientUnits="userSpaceOnUse" />
    <radialGradient
       xlink:href="#cccircular-grad"
       id="radialGradient6776"
       cx="400"
       cy="400"
       r="96"
       fx="400"
       fy="400"
       gradientUnits="userSpaceOnUse" />
    <radialGradient
       xlink:href="#cccircular-grad"
       id="radialGradient6778"
       cx="400"
       cy="400"
       r="64"
       fx="400"
       fy="400"
       gradientUnits="userSpaceOnUse" />
    <radialGradient
       xlink:href="#cccircular-grad"
       id="radialGradient6780"
       cx="400"
       cy="400"
       r="352"
       fx="400"
       fy="400"
       gradientUnits="userSpaceOnUse" />
    <radialGradient
       xlink:href="#cccircular-grad"
       id="radialGradient7115"
       gradientUnits="userSpaceOnUse"
       cx="400"
       cy="400"
       fx="400"
       fy="400"
       r="352" />
    <radialGradient
       xlink:href="#cccircular-grad"
       id="radialGradient7117"
       gradientUnits="userSpaceOnUse"
       cx="400"
       cy="400"
       fx="400"
       fy="400"
       r="352" />
    <filter
       id="mask-powermask-path-effect7503_inverse"
       style="color-interpolation-filters:sRGB"
       height="100"
       width="100"
       x="-50"
       y="-50">
      <feColorMatrix
         id="mask-powermask-path-effect7503_primitive1"
         values="1"
         type="saturate"
         result="fbSourceGraphic" />
      <feColorMatrix
         id="mask-powermask-path-effect7503_primitive2"
         values="-1 0 0 0 1 0 -1 0 0 1 0 0 -1 0 1 0 0 0 1 0 "
         in="fbSourceGraphic" />
    </filter>
    <mask
       maskUnits="userSpaceOnUse"
       id="mask7824">
      <rect
         style="opacity:1;fill:#ffffff;fill-opacity:1;stroke:none;stroke-width:1;stroke-linecap:round;stroke-linejoin:round;paint-order:stroke markers fill"
         id="rect7826"
         width="260.61459"
         height="76.283325"
         x="-173.97653"
         y="24.858671"
         ry="8.1841974" />
    </mask>
    <mask
       maskUnits="userSpaceOnUse"
       id="mask7824-5">
      <rect
         style="opacity:1;fill:#ffffff;fill-opacity:1;stroke:none;stroke-width:1;stroke-linecap:round;stroke-linejoin:round;paint-order:stroke markers fill"
         id="rect7826-8"
         width="260.61459"
         height="76.283325"
         x="-173.97653"
         y="24.858671"
         ry="8.1841974" />
    </mask>
    <radialGradient
       id="cccircular-grad-4"
       r="0.5"
       cx="0.5"
       cy="0.5">
      <stop
         offset="15%"
         stop-color="#82a6cc"
         stop-opacity="0.5"
         id="stop6710-5" />
      <stop
         offset="75%"
         stop-color="hsl(211, 100%, 85%)"
         stop-opacity="1"
         id="stop6712-1" />
      <stop
         offset="100%"
         stop-color="#ffffff"
         stop-opacity="1"
         id="stop6714-8" />
    </radialGradient>
    <radialGradient
       id="radialGradient12773"
       r="0.5"
       cx="0.5"
       cy="0.5">
      <stop
         offset="15%"
         stop-color="#82a6cc"
         stop-opacity="0.5"
         id="stop12767" />
      <stop
         offset="75%"
         stop-color="hsl(211, 100%, 85%)"
         stop-opacity="1"
         id="stop12769" />
      <stop
         offset="100%"
         stop-color="#ffffff"
         stop-opacity="1"
         id="stop12771" />
    </radialGradient>
    <radialGradient
       id="radialGradient12782"
       r="0.5"
       cx="0.5"
       cy="0.5">
      <stop
         offset="15%"
         stop-color="#82a6cc"
         stop-opacity="0.5"
         id="stop12776" />
      <stop
         offset="75%"
         stop-color="hsl(211, 100%, 85%)"
         stop-opacity="1"
         id="stop12778" />
      <stop
         offset="100%"
         stop-color="#ffffff"
         stop-opacity="1"
         id="stop12780" />
    </radialGradient>
    <radialGradient
       id="radialGradient12791"
       r="0.5"
       cx="0.5"
       cy="0.5">
      <stop
         offset="15%"
         stop-color="#82a6cc"
         stop-opacity="0.5"
         id="stop12785" />
      <stop
         offset="75%"
         stop-color="hsl(211, 100%, 85%)"
         stop-opacity="1"
         id="stop12787" />
      <stop
         offset="100%"
         stop-color="#ffffff"
         stop-opacity="1"
         id="stop12789" />
    </radialGradient>
    <radialGradient
       id="radialGradient12800"
       r="0.5"
       cx="0.5"
       cy="0.5">
      <stop
         offset="15%"
         stop-color="#82a6cc"
         stop-opacity="0.5"
         id="stop12794" />
      <stop
         offset="75%"
         stop-color="hsl(211, 100%, 85%)"
         stop-opacity="1"
         id="stop12796" />
      <stop
         offset="100%"
         stop-color="#ffffff"
         stop-opacity="1"
         id="stop12798" />
    </radialGradient>
    <radialGradient
       id="radialGradient12809"
       r="0.5"
       cx="0.5"
       cy="0.5">
      <stop
         offset="15%"
         stop-color="#82a6cc"
         stop-opacity="0.5"
         id="stop12803" />
      <stop
         offset="75%"
         stop-color="hsl(211, 100%, 85%)"
         stop-opacity="1"
         id="stop12805" />
      <stop
         offset="100%"
         stop-color="#ffffff"
         stop-opacity="1"
         id="stop12807" />
    </radialGradient>
    <radialGradient
       id="radialGradient12818"
       r="0.5"
       cx="0.5"
       cy="0.5">
      <stop
         offset="15%"
         stop-color="#82a6cc"
         stop-opacity="0.5"
         id="stop12812" />
      <stop
         offset="75%"
         stop-color="hsl(211, 100%, 85%)"
         stop-opacity="1"
         id="stop12814" />
      <stop
         offset="100%"
         stop-color="#ffffff"
         stop-opacity="1"
         id="stop12816" />
    </radialGradient>
    <radialGradient
       id="radialGradient12827"
       r="0.5"
       cx="0.5"
       cy="0.5">
      <stop
         offset="15%"
         stop-color="#82a6cc"
         stop-opacity="0.5"
         id="stop12821" />
      <stop
         offset="75%"
         stop-color="hsl(211, 100%, 85%)"
         stop-opacity="1"
         id="stop12823" />
      <stop
         offset="100%"
         stop-color="#ffffff"
         stop-opacity="1"
         id="stop12825" />
    </radialGradient>
    <radialGradient
       id="radialGradient12836"
       r="0.5"
       cx="0.5"
       cy="0.5">
      <stop
         offset="15%"
         stop-color="#82a6cc"
         stop-opacity="0.5"
         id="stop12830" />
      <stop
         offset="75%"
         stop-color="hsl(211, 100%, 85%)"
         stop-opacity="1"
         id="stop12832" />
      <stop
         offset="100%"
         stop-color="#ffffff"
         stop-opacity="1"
         id="stop12834" />
    </radialGradient>
    <radialGradient
       id="radialGradient12845"
       r="0.5"
       cx="0.5"
       cy="0.5">
      <stop
         offset="15%"
         stop-color="#82a6cc"
         stop-opacity="0.5"
         id="stop12839" />
      <stop
         offset="75%"
         stop-color="hsl(211, 100%, 85%)"
         stop-opacity="1"
         id="stop12841" />
      <stop
         offset="100%"
         stop-color="#ffffff"
         stop-opacity="1"
         id="stop12843" />
    </radialGradient>
    <radialGradient
       id="radialGradient12854"
       r="0.5"
       cx="0.5"
       cy="0.5">
      <stop
         offset="15%"
         stop-color="#82a6cc"
         stop-opacity="0.5"
         id="stop12848" />
      <stop
         offset="75%"
         stop-color="hsl(211, 100%, 85%)"
         stop-opacity="1"
         id="stop12850" />
      <stop
         offset="100%"
         stop-color="#ffffff"
         stop-opacity="1"
         id="stop12852" />
    </radialGradient>
    <radialGradient
       id="radialGradient12863"
       r="0.5"
       cx="0.5"
       cy="0.5">
      <stop
         offset="15%"
         stop-color="#82a6cc"
         stop-opacity="0.5"
         id="stop12857" />
      <stop
         offset="75%"
         stop-color="hsl(211, 100%, 85%)"
         stop-opacity="1"
         id="stop12859" />
      <stop
         offset="100%"
         stop-color="#ffffff"
         stop-opacity="1"
         id="stop12861" />
    </radialGradient>
    <radialGradient
       id="radialGradient12872"
       r="0.5"
       cx="0.5"
       cy="0.5">
      <stop
         offset="15%"
         stop-color="#82a6cc"
         stop-opacity="0.5"
         id="stop12866" />
      <stop
         offset="75%"
         stop-color="hsl(211, 100%, 85%)"
         stop-opacity="1"
         id="stop12868" />
      <stop
         offset="100%"
         stop-color="#ffffff"
         stop-opacity="1"
         id="stop12870" />
    </radialGradient>
  </defs>
  <g
     id="layer1"
     transform="translate(14.053452,-25.429825)">
    <g
       id="g14794">
      <g
         id="g7782"
         mask="url(#mask7824)"
         transform="translate(159.92308,0.57115385)"
         style="opacity:0.688333">
        <g
           fill="url(#cccircular-grad)"
           id="g6739"
           transform="matrix(0.46172876,0,0,0.46172876,-228.36074,-121.69117)"
           style="opacity:1;fill:url(#radialGradient6780)">
          <path
             id="circle6719"
             style="opacity:0.05;fill:url(#radialGradient6760)"
             d="M 752,400 A 352,352 0 0 1 400,752 352,352 0 0 1 48,400 352,352 0 0 1 400,48 352,352 0 0 1 752,400 Z" />
          <path
             id="circle6721"
             style="opacity:0.15;fill:url(#radialGradient6762)"
             d="M 720,400 A 320,320 0 0 1 400,720 320,320 0 0 1 80,400 320,320 0 0 1 400,80 320,320 0 0 1 720,400 Z" />
          <path
             id="circle6723"
             style="opacity:0.24;fill:url(#radialGradient6764)"
             d="M 688,400 A 288,288 0 0 1 400,688 288,288 0 0 1 112,400 288,288 0 0 1 400,112 288,288 0 0 1 688,400 Z" />
          <g
             id="g7109"
             style="fill:url(#radialGradient7117)">
            <g
               id="g7105"
               style="fill:url(#radialGradient7115)">
              <path
                 id="circle6725"
                 style="opacity:0.33;fill:url(#radialGradient6766)"
                 d="M 656,400 A 256,256 0 0 1 400,656 256,256 0 0 1 144,400 256,256 0 0 1 400,144 256,256 0 0 1 656,400 Z" />
            </g>
          </g>
          <path
             id="circle6727"
             style="opacity:0.43;fill:url(#radialGradient6768)"
             d="M 624,400 A 224,224 0 0 1 400,624 224,224 0 0 1 176,400 224,224 0 0 1 400,176 224,224 0 0 1 624,400 Z" />
          <path
             id="circle6729"
             style="opacity:0.53;fill:url(#radialGradient6770)"
             d="M 592,400 A 192,192 0 0 1 400,592 192,192 0 0 1 208,400 192,192 0 0 1 400,208 192,192 0 0 1 592,400 Z" />
          <path
             id="circle6731"
             style="opacity:0.62;fill:url(#radialGradient6772)"
             d="M 560,400 A 160,160 0 0 1 400,560 160,160 0 0 1 240,400 160,160 0 0 1 400,240 160,160 0 0 1 560,400 Z" />
          <path
             id="circle6733"
             style="opacity:0.71;fill:url(#radialGradient6774)"
             d="M 528,400 A 128,128 0 0 1 400,528 128,128 0 0 1 272,400 128,128 0 0 1 400,272 128,128 0 0 1 528,400 Z" />
          <path
             id="circle6735"
             style="opacity:0.81;fill:url(#radialGradient6776)"
             d="m 496,400 a 96,96 0 0 1 -96,96 96,96 0 0 1 -96,-96 96,96 0 0 1 96,-96 96,96 0 0 1 96,96 z" />
          <path
             id="circle6737"
             style="opacity:0.91;fill:url(#radialGradient6778)"
             d="m 464,400 a 64,64 0 0 1 -64,64 64,64 0 0 1 -64,-64 64,64 0 0 1 64,-64 64,64 0 0 1 64,64 z" />
        </g>
      </g>
      <g
         aria-label="Daniel Šebesta"
         id="text1916"
         style="font-size:22.0631px;line-height:1.25;font-family:'Segoe UI';-inkscape-font-specification:'Segoe UI';stroke-width:0.551578">
        <path
           d="m 41.699313,61.526196 v -15.44848 h 5.472683 q 8.230571,0 8.230571,7.530326 0,3.608954 -2.251557,5.763554 -2.240784,2.1546 -5.979014,2.1546 z m 3.479678,-12.615182 v 9.792656 h 1.72368 q 2.26233,0 3.544316,-1.357398 1.29276,-1.357398 1.29276,-3.695138 0,-2.208465 -1.281987,-3.468906 -1.271213,-1.271214 -3.576635,-1.271214 z"
           style="font-weight:bold;fill:#1f2328"
           id="path15170" />
        <path
           d="m 66.811172,61.526196 h -3.221127 v -1.583631 h -0.04309 q -1.109619,1.852955 -3.285765,1.852955 -1.605176,0 -2.531654,-0.904931 -0.915705,-0.915705 -0.915705,-2.434698 0,-3.210354 3.802868,-3.705911 l 2.994894,-0.398601 q 0,-1.809864 -1.960686,-1.809864 -1.971458,0 -3.749003,1.174257 v -2.563974 q 0.711018,-0.366282 1.93914,-0.64638 1.238894,-0.280098 2.251556,-0.280098 4.718574,0 4.718574,4.7078 z m -3.199581,-4.481568 v -0.743337 l -2.003778,0.258552 q -1.659041,0.21546 -1.659041,1.497447 0,0.581742 0.3986,0.958797 0.409374,0.366282 1.098846,0.366282 0.958797,0 1.562085,-0.657153 0.603288,-0.667926 0.603288,-1.680588 z"
           style="font-weight:bold;fill:#1f2328"
           id="path15172" />
        <path
           d="m 80.158918,61.526196 h -3.393495 v -6.129837 q 0,-2.563973 -1.83141,-2.563973 -0.883386,0 -1.454354,0.678699 -0.570969,0.678699 -0.570969,1.723679 v 6.291432 H 69.504422 V 50.494645 h 3.404268 v 1.745226 h 0.04309 q 1.217348,-2.014551 3.544316,-2.014551 3.66282,0 3.66282,4.546206 z"
           style="font-weight:bold;fill:#1f2328"
           id="path15174" />
        <path
           d="m 84.575846,48.749419 q -0.86184,0 -1.411263,-0.506331 -0.549423,-0.517103 -0.549423,-1.26044 0,-0.764883 0.549423,-1.249668 0.549423,-0.484785 1.411263,-0.484785 0.872613,0 1.411263,0.484785 0.549423,0.484785 0.549423,1.249668 0,0.775656 -0.549423,1.271213 -0.53865,0.495558 -1.411263,0.495558 z m 1.680588,12.776777 H 82.852166 V 50.494645 h 3.404268 z"
           style="font-weight:bold;fill:#1f2328"
           id="path15176" />
        <path
           d="m 99.033211,56.97999 h -7.196363 q 0.172368,2.402379 3.027212,2.402379 1.820637,0 3.199581,-0.86184 v 2.456244 q -1.529766,0.818747 -3.975237,0.818747 -2.671703,0 -4.147604,-1.4759 -1.475901,-1.486674 -1.475901,-4.136832 0,-2.747114 1.594404,-4.352291 1.594404,-1.605177 3.921371,-1.605177 2.413152,0 3.727458,1.432809 1.325079,1.432809 1.325079,3.889052 z m -3.156489,-2.089962 q 0,-2.370059 -1.917594,-2.370059 -0.818747,0 -1.422035,0.678699 -0.592515,0.678699 -0.721791,1.69136 z"
           style="font-weight:bold;fill:#1f2328"
           id="path15178" />
        <path
           d="m 104.4628,61.526196 h -3.40427 V 45.19433 h 3.40427 z"
           style="font-weight:bold;fill:#1f2328"
           id="path15180" />
        <path
           d="m 113.03811,60.933681 v -3.44736 q 0.93725,0.786429 2.03609,1.18503 1.09885,0.387828 2.21924,0.387828 0.65715,0 1.14194,-0.118503 0.49556,-0.118503 0.81875,-0.32319 0.33396,-0.21546 0.49556,-0.495558 0.16159,-0.290871 0.16159,-0.624834 0,-0.452466 -0.25855,-0.807975 -0.25855,-0.355509 -0.71102,-0.657153 -0.44169,-0.301644 -1.05575,-0.581742 -0.61406,-0.280098 -1.32508,-0.570969 -1.80987,-0.754109 -2.70403,-1.842182 -0.88338,-1.088073 -0.88338,-2.628612 0,-1.206576 0.48478,-2.068416 0.48479,-0.872612 1.31431,-1.432808 0.84029,-0.560196 1.93914,-0.818748 1.09885,-0.269325 2.32697,-0.269325 1.20657,0 2.13305,0.150822 0.93725,0.140049 1.72368,0.441693 v 3.221126 q -0.38783,-0.269325 -0.85107,-0.474012 -0.45246,-0.204687 -0.93725,-0.333963 -0.48478,-0.140049 -0.96957,-0.204687 -0.47401,-0.06464 -0.90493,-0.06464 -0.59251,0 -1.0773,0.118503 -0.48478,0.10773 -0.81875,0.312417 -0.33396,0.204687 -0.5171,0.495558 -0.18314,0.280098 -0.18314,0.635607 0,0.387828 0.20469,0.700245 0.20468,0.301644 0.58174,0.581742 0.37705,0.269325 0.9157,0.53865 0.53865,0.258552 1.21735,0.53865 0.92648,0.387828 1.65904,0.829521 0.74334,0.43092 1.27122,0.980343 0.52787,0.549422 0.80797,1.26044 0.2801,0.700245 0.2801,1.637496 0,1.29276 -0.49556,2.176146 -0.48478,0.872613 -1.32508,1.422036 -0.84029,0.53865 -1.96068,0.775656 -1.10962,0.237005 -2.34852,0.237005 -1.27121,0 -2.42392,-0.215459 -1.14194,-0.21546 -1.98223,-0.64638 z m 9.42637,-19.456036 -2.56397,3.501225 h -2.67171 l -2.53165,-3.501225 h 2.20846 l 1.66982,2.025324 1.68059,-2.025324 z"
           style="font-weight:bold;fill:#1f2328"
           id="path15182" />
        <path
           d="m 135.69372,56.97999 h -7.19636 q 0.17237,2.402379 3.02721,2.402379 1.82064,0 3.19958,-0.86184 v 2.456244 q -1.52976,0.818747 -3.97523,0.818747 -2.67171,0 -4.14761,-1.4759 -1.4759,-1.486674 -1.4759,-4.136832 0,-2.747114 1.5944,-4.352291 1.59441,-1.605177 3.92138,-1.605177 2.41315,0 3.72745,1.432809 1.32508,1.432809 1.32508,3.889052 z m -3.15649,-2.089962 q 0,-2.370059 -1.91759,-2.370059 -0.81875,0 -1.42204,0.678699 -0.59251,0.678699 -0.72179,1.69136 z"
           style="font-weight:bold;fill:#1f2328"
           id="path15184" />
        <path
           d="m 141.16641,60.244209 h -0.0431 v 1.281987 h -3.40427 V 45.19433 h 3.40427 v 6.959357 h 0.0431 q 1.26044,-1.928367 3.58741,-1.928367 2.13305,0 3.28576,1.465128 1.15271,1.465128 1.15271,4.007555 0,2.757888 -1.34662,4.427703 -1.34663,1.669814 -3.59818,1.669814 -2.0361,0 -3.08108,-1.551311 z m -0.097,-4.653936 v 1.131165 q 0,1.066527 0.61406,1.766772 0.61406,0.700245 1.57286,0.700245 1.16348,0 1.79909,-0.894159 0.64638,-0.904932 0.64638,-2.553201 0,-1.36817 -0.59251,-2.133053 -0.58175,-0.775656 -1.66982,-0.775656 -1.02343,0 -1.70213,0.764883 -0.66793,0.764883 -0.66793,1.993004 z"
           style="font-weight:bold;fill:#1f2328"
           id="path15186" />
        <path
           d="m 161.31192,56.97999 h -7.19637 q 0.17237,2.402379 3.02722,2.402379 1.82063,0 3.19958,-0.86184 v 2.456244 q -1.52977,0.818747 -3.97524,0.818747 -2.6717,0 -4.1476,-1.4759 -1.47591,-1.486674 -1.47591,-4.136832 0,-2.747114 1.59441,-4.352291 1.5944,-1.605177 3.92137,-1.605177 2.41315,0 3.72746,1.432809 1.32508,1.432809 1.32508,3.889052 z m -3.15649,-2.089962 q 0,-2.370059 -1.9176,-2.370059 -0.81874,0 -1.42203,0.678699 -0.59252,0.678699 -0.72179,1.69136 z"
           style="font-weight:bold;fill:#1f2328"
           id="path15188" />
        <path
           d="m 162.61544,61.235325 v -2.757888 q 0.8403,0.506331 1.66982,0.75411 0.84029,0.247779 1.58363,0.247779 0.90493,0 1.42204,-0.247779 0.52787,-0.247779 0.52787,-0.75411 0,-0.32319 -0.237,-0.53865 -0.23701,-0.21546 -0.61406,-0.377055 -0.36629,-0.161595 -0.80798,-0.290871 -0.44169,-0.129276 -0.85107,-0.290871 -0.65715,-0.247779 -1.16348,-0.527877 -0.49556,-0.290871 -0.84029,-0.667926 -0.33397,-0.377055 -0.51711,-0.872613 -0.17237,-0.495557 -0.17237,-1.174256 0,-0.926478 0.39861,-1.594404 0.40937,-0.667926 1.0773,-1.088073 0.67869,-0.43092 1.54053,-0.624834 0.87262,-0.204687 1.80987,-0.204687 0.73256,0 1.48667,0.118503 0.75411,0.10773 1.48668,0.32319 v 2.628612 q -0.64638,-0.377055 -1.38972,-0.560196 -0.73257,-0.193914 -1.44358,-0.193914 -0.33397,0 -0.63561,0.06464 -0.29087,0.05387 -0.5171,0.172368 -0.22624,0.10773 -0.35551,0.290871 -0.12928,0.172368 -0.12928,0.398601 0,0.301644 0.19391,0.517104 0.19392,0.21546 0.50634,0.377055 0.31241,0.150822 0.68947,0.280098 0.38783,0.118503 0.76488,0.247778 0.6787,0.237006 1.22812,0.517104 0.54943,0.280098 0.93725,0.657153 0.3986,0.377055 0.60329,0.883386 0.21546,0.506331 0.21546,1.206576 0,0.980343 -0.43092,1.680588 -0.42015,0.689472 -1.13116,1.131165 -0.70025,0.43092 -1.62673,0.624834 -0.9157,0.204686 -1.90682,0.204686 -1.82063,0 -3.37195,-0.560195 z"
           style="font-weight:bold;fill:#1f2328"
           id="path15190" />
        <path
           d="m 179.7122,61.39692 q -0.75411,0.3986 -2.27311,0.3986 -3.59818,0 -3.59818,-3.73823 v -5.052536 h -1.78832 v -2.510109 h 1.78832 v -2.380833 l 3.3935,-0.969569 v 3.350402 h 2.47779 v 2.510109 h -2.47779 v 4.460021 q 0,1.72368 1.36817,1.72368 0.53865,0 1.10962,-0.312417 z"
           style="font-weight:bold;fill:#1f2328"
           id="path15192" />
        <path
           d="m 190.80838,61.526196 h -3.22113 v -1.583631 h -0.0431 q -1.10962,1.852955 -3.28576,1.852955 -1.60518,0 -2.53166,-0.904931 -0.9157,-0.915705 -0.9157,-2.434698 0,-3.210354 3.80287,-3.705911 l 2.99489,-0.398601 q 0,-1.809864 -1.96069,-1.809864 -1.97146,0 -3.749,1.174257 v -2.563974 q 0.71102,-0.366282 1.93914,-0.64638 1.23889,-0.280098 2.25156,-0.280098 4.71857,0 4.71857,4.7078 z m -3.19958,-4.481568 v -0.743337 l -2.00378,0.258552 q -1.65904,0.21546 -1.65904,1.497447 0,0.581742 0.3986,0.958797 0.40937,0.366282 1.09885,0.366282 0.95879,0 1.56208,-0.657153 0.60329,-0.667926 0.60329,-1.680588 z"
           style="font-weight:bold;fill:#1f2328"
           id="path15194" />
      </g>
      <g
         aria-label="Webdev, student, scout..."
         id="text1916-1"
         style="font-size:16.9517px;line-height:1.25;font-family:'Segoe UI';-inkscape-font-specification:'Segoe UI';stroke-width:0.423793">
        <path
           d="M 39.400065,69.156515 36.0478,81.026016 h -1.630608 l -2.441773,-8.674503 q -0.157267,-0.554572 -0.190375,-1.20847 h -0.03311 q -0.04966,0.612512 -0.215207,1.191916 L 29.0784,81.026016 H 27.464347 L 23.987924,69.156515 h 1.531281 l 2.524545,9.104917 q 0.157267,0.571127 0.198653,1.191917 h 0.04139 q 0.04139,-0.438692 0.256593,-1.191917 l 2.623872,-9.104917 h 1.332629 l 2.516268,9.171135 q 0.132435,0.4718 0.198652,1.109144 h 0.03311 q 0.03311,-0.430414 0.223484,-1.142253 l 2.425219,-9.138026 z"
           style="fill:#1f2328"
           id="path15197" />
        <path
           d="m 47.130968,77.127456 h -5.984414 q 0.03311,1.415401 0.761502,2.18518 0.728393,0.76978 2.003082,0.76978 1.431955,0 2.632149,-0.943601 v 1.274689 q -1.117422,0.811165 -2.95496,0.811165 -1.796152,0 -2.822524,-1.15053 -1.026373,-1.158808 -1.026373,-3.252939 0,-1.97825 1.117422,-3.21983 1.125699,-1.249857 2.789416,-1.249857 1.663716,0 2.574208,1.076036 0.910492,1.076036 0.910492,2.988068 z m -1.39057,-1.15053 q -0.0083,-1.175362 -0.571126,-1.829261 -0.554572,-0.653898 -1.547836,-0.653898 -0.960155,0 -1.630608,0.687007 -0.670453,0.687007 -0.82772,1.796152 z"
           style="fill:#1f2328"
           id="path15199" />
        <path
           d="m 50.574282,79.800991 h -0.03311 v 1.225025 h -1.35746 V 68.477785 h 1.35746 v 5.562277 h 0.03311 q 1.001541,-1.688549 2.930128,-1.688549 1.630608,0 2.549377,1.142254 0.927046,1.133976 0.927046,3.046008 0,2.12724 -1.03465,3.410206 -1.03465,1.274688 -2.830801,1.274688 -1.680271,0 -2.5411,-1.423678 z m -0.03311,-3.418482 v 1.183639 q 0,1.051204 0.67873,1.787874 0.687008,0.728394 1.738212,0.728394 1.233302,0 1.928587,-0.943601 0.703562,-0.9436 0.703562,-2.623871 0,-1.415401 -0.653899,-2.218289 -0.653899,-0.802888 -1.77132,-0.802888 -1.183639,0 -1.903756,0.827719 -0.720116,0.819443 -0.720116,2.061023 z"
           style="fill:#1f2328"
           id="path15201" />
        <path
           d="m 66.383729,81.026016 h -1.35746 v -1.440232 h -0.03311 q -0.9436,1.638885 -2.913573,1.638885 -1.597499,0 -2.557654,-1.133976 -0.951878,-1.142253 -0.951878,-3.103949 0,-2.102408 1.059481,-3.368819 1.059482,-1.266412 2.822525,-1.266412 1.746488,0 2.541099,1.374015 h 0.03311 v -5.247743 h 1.35746 z m -1.35746,-3.832342 v -1.249857 q 0,-1.026372 -0.67873,-1.738211 -0.67873,-0.711839 -1.721657,-0.711839 -1.24158,0 -1.953419,0.910491 -0.711839,0.910492 -0.711839,2.516268 0,1.465064 0.67873,2.317616 0.687008,0.844274 1.837538,0.844274 1.133976,0 1.837538,-0.819443 0.711839,-0.819442 0.711839,-2.069299 z"
           style="fill:#1f2328"
           id="path15203" />
        <path
           d="m 75.943892,77.127456 h -5.984414 q 0.03311,1.415401 0.761502,2.18518 0.728394,0.76978 2.003082,0.76978 1.431955,0 2.632149,-0.943601 v 1.274689 q -1.117422,0.811165 -2.954959,0.811165 -1.796152,0 -2.822525,-1.15053 -1.026372,-1.158808 -1.026372,-3.252939 0,-1.97825 1.117421,-3.21983 1.125699,-1.249857 2.789416,-1.249857 1.663717,0 2.574208,1.076036 0.910492,1.076036 0.910492,2.988068 z m -1.390569,-1.15053 q -0.0083,-1.175362 -0.571127,-1.829261 -0.554572,-0.653898 -1.547836,-0.653898 -0.960155,0 -1.630608,0.687007 -0.670453,0.687007 -0.827719,1.796152 z"
           style="fill:#1f2328"
           id="path15205" />
        <path
           d="m 84.659782,72.550166 -3.377096,8.47585 h -1.332629 l -3.211553,-8.47585 H 78.2284 l 2.152071,6.158235 q 0.240039,0.67873 0.297979,1.183639 h 0.03311 q 0.08277,-0.637344 0.26487,-1.15053 l 2.251398,-6.191344 z"
           style="fill:#1f2328"
           id="path15207" />
        <path
           d="m 87.358148,79.138815 -1.324351,4.072381 h -0.968433 l 0.968433,-4.072381 z"
           style="fill:#1f2328"
           id="path15209" />
        <path
           d="m 93.921967,80.71976 v -1.456787 q 1.109144,0.819443 2.441773,0.819443 1.787875,0 1.787875,-1.191917 0,-0.339365 -0.157267,-0.571126 -0.14899,-0.240039 -0.41386,-0.422137 -0.256593,-0.182099 -0.612513,-0.322811 -0.347642,-0.14899 -0.753225,-0.306256 -0.562849,-0.223485 -0.993263,-0.446969 -0.422137,-0.231762 -0.711839,-0.513186 -0.281425,-0.289702 -0.430415,-0.653899 -0.140712,-0.364197 -0.140712,-0.852551 0,-0.595958 0.273148,-1.051204 0.273147,-0.463523 0.728393,-0.76978 0.455246,-0.314533 1.03465,-0.4718 0.587681,-0.157267 1.20847,-0.157267 1.100868,0 1.969973,0.380751 v 1.374015 q -0.935323,-0.612512 -2.152071,-0.612512 -0.380751,0 -0.687007,0.09105 -0.306257,0.08277 -0.529741,0.240039 -0.215207,0.157266 -0.339365,0.380751 -0.115881,0.215207 -0.115881,0.480077 0,0.331088 0.115881,0.554572 0.124158,0.223485 0.355919,0.397306 0.231762,0.173821 0.56285,0.314533 0.331088,0.140713 0.753225,0.306257 0.562849,0.215207 1.009818,0.446968 0.446969,0.223485 0.761502,0.513186 0.314534,0.281425 0.480078,0.653899 0.173821,0.372474 0.173821,0.88566 0,0.629067 -0.281425,1.09259 -0.273148,0.463523 -0.736671,0.76978 -0.463523,0.306256 -1.067758,0.455245 -0.604235,0.14899 -1.266411,0.14899 -1.307797,0 -2.267952,-0.504909 z"
           style="fill:#1f2328"
           id="path15211" />
        <path
           d="m 105.55971,80.943244 q -0.48008,0.264871 -1.26641,0.264871 -2.22657,0 -2.22657,-2.48316 v -5.015981 h -1.45679 v -1.158808 h 1.45679 v -2.069299 l 1.35746,-0.438692 v 2.507991 h 2.13552 v 1.158808 h -2.13552 v 4.775943 q 0,0.852551 0.2897,1.216748 0.2897,0.364196 0.96016,0.364196 0.51318,0 0.88566,-0.281424 z"
           style="fill:#1f2328"
           id="path15213" />
        <path
           d="m 114.22593,81.026016 h -1.35746 V 79.68511 h -0.0331 q -0.84428,1.539559 -2.6156,1.539559 -3.02945,0 -3.02945,-3.608858 v -5.065645 h 1.34918 v 4.850438 q 0,2.681812 2.05275,2.681812 0.99326,0 1.63061,-0.728394 0.64562,-0.73667 0.64562,-1.920309 v -4.883547 h 1.35746 z"
           style="fill:#1f2328"
           id="path15215" />
        <path
           d="m 124.19996,81.026016 h -1.35746 v -1.440232 h -0.0331 q -0.9436,1.638885 -2.91358,1.638885 -1.5975,0 -2.55765,-1.133976 -0.95188,-1.142253 -0.95188,-3.103949 0,-2.102408 1.05948,-3.368819 1.05948,-1.266412 2.82253,-1.266412 1.74649,0 2.5411,1.374015 h 0.0331 v -5.247743 h 1.35746 z m -1.35746,-3.832342 v -1.249857 q 0,-1.026372 -0.67873,-1.738211 -0.67873,-0.711839 -1.72166,-0.711839 -1.24158,0 -1.95342,0.910491 -0.71184,0.910492 -0.71184,2.516268 0,1.465064 0.67873,2.317616 0.68701,0.844274 1.83754,0.844274 1.13398,0 1.83754,-0.819443 0.71184,-0.819442 0.71184,-2.069299 z"
           style="fill:#1f2328"
           id="path15217" />
        <path
           d="m 133.76012,77.127456 h -5.98441 q 0.0331,1.415401 0.7615,2.18518 0.72839,0.76978 2.00308,0.76978 1.43195,0 2.63215,-0.943601 v 1.274689 q -1.11742,0.811165 -2.95496,0.811165 -1.79615,0 -2.82253,-1.15053 -1.02637,-1.158808 -1.02637,-3.252939 0,-1.97825 1.11742,-3.21983 1.1257,-1.249857 2.78942,-1.249857 1.66372,0 2.57421,1.076036 0.91049,1.076036 0.91049,2.988068 z m -1.39057,-1.15053 q -0.008,-1.175362 -0.57113,-1.829261 -0.55457,-0.653898 -1.54783,-0.653898 -0.96016,0 -1.63061,0.687007 -0.67045,0.687007 -0.82772,1.796152 z"
           style="fill:#1f2328"
           id="path15219" />
        <path
           d="m 142.84848,81.026016 h -1.35746 v -4.833883 q 0,-2.698366 -1.96997,-2.698366 -1.0181,0 -1.68855,0.769779 -0.66218,0.761502 -0.66218,1.928587 v 4.833883 h -1.35746 v -8.47585 h 1.35746 v 1.407124 h 0.0331 q 0.96016,-1.605777 2.78114,-1.605777 1.39057,0 2.12724,0.902215 0.73667,0.893937 0.73667,2.590763 z"
           style="fill:#1f2328"
           id="path15221" />
        <path
           d="m 149.3378,80.943244 q -0.48008,0.264871 -1.26641,0.264871 -2.22657,0 -2.22657,-2.48316 v -5.015981 h -1.45678 v -1.158808 h 1.45678 v -2.069299 l 1.35746,-0.438692 v 2.507991 h 2.13552 v 1.158808 h -2.13552 v 4.775943 q 0,0.852551 0.2897,1.216748 0.28971,0.364196 0.96016,0.364196 0.51319,0 0.88566,-0.281424 z"
           style="fill:#1f2328"
           id="path15223" />
        <path
           d="m 152.39209,79.138815 -1.32435,4.072381 h -0.96844 l 0.96844,-4.072381 z"
           style="fill:#1f2328"
           id="path15225" />
        <path
           d="m 158.9559,80.71976 v -1.456787 q 1.10915,0.819443 2.44178,0.819443 1.78787,0 1.78787,-1.191917 0,-0.339365 -0.15727,-0.571126 -0.14899,-0.240039 -0.41386,-0.422137 -0.25659,-0.182099 -0.61251,-0.322811 -0.34764,-0.14899 -0.75322,-0.306256 -0.56285,-0.223485 -0.99327,-0.446969 -0.42213,-0.231762 -0.71184,-0.513186 -0.28142,-0.289702 -0.43041,-0.653899 -0.14071,-0.364197 -0.14071,-0.852551 0,-0.595958 0.27314,-1.051204 0.27315,-0.463523 0.7284,-0.76978 0.45524,-0.314533 1.03465,-0.4718 0.58768,-0.157267 1.20847,-0.157267 1.10087,0 1.96997,0.380751 v 1.374015 q -0.93532,-0.612512 -2.15207,-0.612512 -0.38075,0 -0.68701,0.09105 -0.30625,0.08277 -0.52974,0.240039 -0.21521,0.157266 -0.33936,0.380751 -0.11588,0.215207 -0.11588,0.480077 0,0.331088 0.11588,0.554572 0.12415,0.223485 0.35592,0.397306 0.23176,0.173821 0.56285,0.314533 0.33108,0.140713 0.75322,0.306257 0.56285,0.215207 1.00982,0.446968 0.44697,0.223485 0.7615,0.513186 0.31453,0.281425 0.48008,0.653899 0.17382,0.372474 0.17382,0.88566 0,0.629067 -0.28143,1.09259 -0.27314,0.463523 -0.73667,0.76978 -0.46352,0.306256 -1.06775,0.455245 -0.60424,0.14899 -1.26642,0.14899 -1.30779,0 -2.26795,-0.504909 z"
           style="fill:#1f2328"
           id="path15227" />
        <path
           d="m 172.43946,80.636988 q -0.97671,0.587681 -2.31762,0.587681 -1.8127,0 -2.93012,-1.175362 -1.10915,-1.183639 -1.10915,-3.062563 0,-2.094131 1.20019,-3.360542 1.2002,-1.274689 3.20328,-1.274689 1.11742,0 1.96997,0.41386 v 1.390569 q -0.9436,-0.662175 -2.01963,-0.662175 -1.29952,0 -2.13552,0.935323 -0.82772,0.927046 -0.82772,2.441773 0,1.489896 0.77806,2.350724 0.78633,0.860829 2.1024,0.860829 1.10915,0 2.08586,-0.736671 z"
           style="fill:#1f2328"
           id="path15229" />
        <path
           d="m 178.03485,81.224669 q -1.87893,0 -3.00463,-1.183639 -1.11742,-1.191917 -1.11742,-3.153612 0,-2.135517 1.16709,-3.335711 1.16708,-1.200194 3.15361,-1.200194 1.89548,0 2.95496,1.167085 1.06776,1.167085 1.06776,3.236384 0,2.027914 -1.15053,3.252939 -1.14226,1.216748 -3.07084,1.216748 z m 0.0993,-7.730902 q -1.30779,0 -2.0693,0.893937 -0.7615,0.88566 -0.7615,2.45005 0,1.50645 0.76978,2.375556 0.76978,0.869106 2.06102,0.869106 1.31608,0 2.01964,-0.852552 0.71184,-0.852551 0.71184,-2.425218 0,-1.589222 -0.71184,-2.450051 -0.70356,-0.860828 -2.01964,-0.860828 z"
           style="fill:#1f2328"
           id="path15231" />
        <path
           d="M 191.27836,81.026016 H 189.9209 V 79.68511 h -0.0331 q -0.84428,1.539559 -2.6156,1.539559 -3.02945,0 -3.02945,-3.608858 v -5.065645 h 1.34918 v 4.850438 q 0,2.681812 2.05275,2.681812 0.99326,0 1.63061,-0.728394 0.64562,-0.73667 0.64562,-1.920309 v -4.883547 h 1.35746 z"
           style="fill:#1f2328"
           id="path15233" />
        <path
           d="m 197.94978,80.943244 q -0.48007,0.264871 -1.26641,0.264871 -2.22656,0 -2.22656,-2.48316 v -5.015981 h -1.45679 v -1.158808 h 1.45679 v -2.069299 l 1.35746,-0.438692 v 2.507991 h 2.13551 v 1.158808 h -2.13551 v 4.775943 q 0,0.852551 0.2897,1.216748 0.2897,0.364196 0.96015,0.364196 0.51319,0 0.88566,-0.281424 z"
           style="fill:#1f2328"
           id="path15235" />
        <path
           d="m 200.23428,81.208115 q -0.38075,0 -0.65389,-0.273148 -0.26487,-0.273147 -0.26487,-0.653899 0,-0.380751 0.26487,-0.653898 0.27314,-0.281425 0.65389,-0.281425 0.38903,0 0.66218,0.281425 0.27315,0.273147 0.27315,0.653898 0,0.380752 -0.27315,0.653899 -0.27315,0.273148 -0.66218,0.273148 z"
           style="fill:#1f2328"
           id="path15237" />
        <path
           d="m 203.90936,81.208115 q -0.38075,0 -0.65389,-0.273148 -0.26487,-0.273147 -0.26487,-0.653899 0,-0.380751 0.26487,-0.653898 0.27314,-0.281425 0.65389,-0.281425 0.38903,0 0.66218,0.281425 0.27315,0.273147 0.27315,0.653898 0,0.380752 -0.27315,0.653899 -0.27315,0.273148 -0.66218,0.273148 z"
           style="fill:#1f2328"
           id="path15239" />
        <path
           d="m 207.58444,81.208115 q -0.38075,0 -0.6539,-0.273148 -0.26487,-0.273147 -0.26487,-0.653899 0,-0.380751 0.26487,-0.653898 0.27315,-0.281425 0.6539,-0.281425 0.38903,0 0.66218,0.281425 0.27315,0.273147 0.27315,0.653898 0,0.380752 -0.27315,0.653899 -0.27315,0.273148 -0.66218,0.273148 z"
           style="fill:#1f2328"
           id="path15241" />
      </g>
    </g>
  </g>
</svg>
